<svg xmlns="http://www.w3.org/2000/svg" width="32.393" height="32.393" viewBox="0 0 32.393 32.393"><path d="M28.435,0a3.959,3.959,0,0,1,3.958,3.958V28.435a3.96,3.96,0,0,1-3.958,3.958H3.958A3.96,3.96,0,0,1,0,28.435V3.958A3.959,3.959,0,0,1,3.958,0H28.435ZM16.2,5.125c-3.007,0-3.384.013-4.565.067a8.125,8.125,0,0,0-2.688.515A5.661,5.661,0,0,0,5.706,8.944a8.129,8.129,0,0,0-.515,2.688c-.054,1.181-.067,1.558-.067,4.565s.013,3.384.067,4.565a8.129,8.129,0,0,0,.515,2.688,5.662,5.662,0,0,0,3.238,3.238,8.127,8.127,0,0,0,2.688.515c1.181.054,1.558.067,4.565.067s3.384-.013,4.565-.067a8.127,8.127,0,0,0,2.688-.515,5.662,5.662,0,0,0,3.238-3.238,8.127,8.127,0,0,0,.515-2.688c.054-1.181.067-1.558.067-4.565s-.013-3.384-.067-4.565a8.127,8.127,0,0,0-.515-2.688,5.661,5.661,0,0,0-3.238-3.238,8.125,8.125,0,0,0-2.688-.515C19.58,5.137,19.2,5.125,16.2,5.125Zm0,1.995c2.956,0,3.306.011,4.474.065a6.13,6.13,0,0,1,2.056.381,3.667,3.667,0,0,1,2.1,2.1,6.127,6.127,0,0,1,.381,2.056c.053,1.167.065,1.518.065,4.474s-.011,3.306-.065,4.474a6.127,6.127,0,0,1-.381,2.056,3.667,3.667,0,0,1-2.1,2.1,6.127,6.127,0,0,1-2.056.381c-1.167.053-1.517.065-4.474.065s-3.307-.011-4.474-.065a6.127,6.127,0,0,1-2.056-.381,3.667,3.667,0,0,1-2.1-2.1,6.128,6.128,0,0,1-.381-2.056c-.053-1.167-.065-1.518-.065-4.474s.011-3.306.065-4.474a6.128,6.128,0,0,1,.381-2.056,3.667,3.667,0,0,1,2.1-2.1,6.13,6.13,0,0,1,2.056-.381C12.89,7.131,13.24,7.12,16.2,7.12Zm0,3.391A5.685,5.685,0,1,0,21.882,16.2,5.685,5.685,0,0,0,16.2,10.511Zm0,9.376A3.691,3.691,0,1,1,19.887,16.2,3.69,3.69,0,0,1,16.2,19.887Zm7.239-9.6a1.329,1.329,0,1,1-1.329-1.329,1.329,1.329,0,0,1,1.329,1.329Z" fill="#fff" fill-rule="evenodd"/></svg>