<?xml version="1.0" encoding="UTF-8" standalone="no"?>
<svg
   fill="none"
   height="15.999992"
   viewBox="0 0 15.999977 15.999992"
   width="15.999977"
   version="1.1"
   id="svg4"
   sodipodi:docname="facebook.svg"
   inkscape:version="1.1.2 (1:1.1+202202050950+0a00cf5339)"
   xmlns:inkscape="http://www.inkscape.org/namespaces/inkscape"
   xmlns:sodipodi="http://sodipodi.sourceforge.net/DTD/sodipodi-0.dtd"
   xmlns="http://www.w3.org/2000/svg"
   xmlns:svg="http://www.w3.org/2000/svg">
  <defs
     id="defs8" />
  <sodipodi:namedview
     id="namedview6"
     pagecolor="#ffffff"
     bordercolor="#666666"
     borderopacity="1.0"
     inkscape:pageshadow="2"
     inkscape:pageopacity="0.0"
     inkscape:pagecheckerboard="0"
     showgrid="false"
     inkscape:zoom="21.147059"
     inkscape:cx="-2.2934631"
     inkscape:cy="8.4172462"
     inkscape:window-width="1920"
     inkscape:window-height="1009"
     inkscape:window-x="0"
     inkscape:window-y="34"
     inkscape:window-maximized="1"
     inkscape:current-layer="svg4"
     fit-margin-top="0"
     fit-margin-left="0"
     fit-margin-right="0"
     fit-margin-bottom="0" />
  <rect
     style="fill:#000000;fill-opacity:0.998997;stroke:none;stroke-width:0.537078"
     id="rect869"
     width="8.7510176"
     height="13.236897"
     x="4.8652267"
     y="2.7529795" />
  <path
     d="M 13.747977,0 H 2.251997 C 1.654737,0 1.081927,0.237262 0.659597,0.659592 0.237263,1.081932 0,1.654732 0,2.252002 v 11.49599 c 0,0.5973 0.237263,1.1701 0.659597,1.5924 0.42233,0.4223 0.99514,0.6596 1.5924,0.6596 h 5.232 v -5.84 h -1.978 v -2.27799 h 1.978 v -1.678 c 0,-0.951 0.263,-1.69 0.789,-2.215 0.526,-0.526 1.239,-0.79 2.13998,-0.79 0.902,0 1.486,0.035 1.753,0.101 v 2.028 h -1.202 c -0.434,0 -0.73,0.092 -0.889,0.276 -0.158,0.183 -0.237,0.459 -0.237,0.826 v 1.452 h 2.253 l -0.3,2.27799 h -1.953 v 5.84 h 3.91 c 0.5973,0 1.1701,-0.2373 1.5924,-0.6596 0.4224,-0.4223 0.6596,-0.9951 0.6596,-1.5924 V 2.252002 c 0,-0.59727 -0.2372,-1.17007 -0.6596,-1.59241 C 14.918077,0.237262 14.345277,0 13.747977,0 Z"
     fill="black"
     id="path2"
     style="fill:#808080" />
</svg>
