<?xml version="1.0" encoding="UTF-8" standalone="no"?>
<svg
   height="512"
   style="clip-rule:evenodd;fill-rule:evenodd;stroke-linejoin:round;stroke-miterlimit:2"
   version="1.1"
   viewBox="0 0 512 512"
   width="512"
   xml:space="preserve"
   id="svg4"
   sodipodi:docname="instagram.svg"
   inkscape:version="1.1.2 (1:1.1+202202050950+0a00cf5339)"
   xmlns:inkscape="http://www.inkscape.org/namespaces/inkscape"
   xmlns:sodipodi="http://sodipodi.sourceforge.net/DTD/sodipodi-0.dtd"
   xmlns="http://www.w3.org/2000/svg"
   xmlns:svg="http://www.w3.org/2000/svg"><defs
     id="defs8" /><sodipodi:namedview
     id="namedview6"
     pagecolor="#ffffff"
     bordercolor="#666666"
     borderopacity="1.0"
     inkscape:pageshadow="2"
     inkscape:pageopacity="0.0"
     inkscape:pagecheckerboard="0"
     showgrid="false"
     inkscape:zoom="0.99298784"
     inkscape:cx="258.31132"
     inkscape:cy="297.08319"
     inkscape:window-width="1920"
     inkscape:window-height="1009"
     inkscape:window-x="0"
     inkscape:window-y="34"
     inkscape:window-maximized="1"
     inkscape:current-layer="svg4"
     fit-margin-top="0"
     fit-margin-left="0"
     fit-margin-right="0"
     fit-margin-bottom="0" /><rect
     style="fill:#000000;fill-opacity:1;stroke:#ffffff;stroke-width:0.456601"
     id="rect1213"
     width="408.11023"
     height="390.13126"
     x="62.001915"
     y="48.970627" /><path
     d="M 449.446,0 C 483.971,0 512,28.029995 512,62.553995 V 449.44599 c 0,34.524 -28.03,62.554 -62.554,62.554 H 62.553997 C 28.029997,511.99999 0,483.96999 0,449.44599 V 62.553995 C 0,28.029995 28.028997,0 62.553997,0 Z M 255.99999,80.999995 c -47.527,0 -53.487,0.201 -72.152,1.053 -18.627,0.85 -31.348,3.808 -42.48,8.135 -11.508,4.472 -21.26699,10.455995 -30.996,20.183995 -9.72899,9.729 -15.712995,19.489 -20.184995,30.996 -4.326,11.132 -7.284,23.853 -8.135,42.48 -0.851,18.665 -1.052,24.625 -1.052,72.152 0,47.527 0.201,53.487 1.052,72.152 0.851,18.627 3.809,31.348 8.135,42.48 4.472,11.507 10.456005,21.267 20.184995,30.996 9.729,9.729 19.488,15.713 30.996,20.185 11.13201,4.326 23.85301,7.284 42.48,8.134 18.665,0.852 24.625,1.053 72.152,1.053 47.527,0 53.48701,-0.201 72.152,-1.053 18.627,-0.85 31.34801,-3.808 42.48001,-8.134 11.507,-4.472 21.267,-10.456 30.99599,-20.185 9.729,-9.729 15.71301,-19.489 20.185,-30.996 4.32601,-11.132 7.284,-23.853 8.13401,-42.48 0.85199,-18.665 1.053,-24.625 1.053,-72.152 0,-47.527 -0.20101,-53.487 -1.053,-72.152 -0.85001,-18.627 -3.808,-31.348 -8.13401,-42.48 C 417.341,129.861 411.35699,120.101 401.62799,110.372 391.899,100.644 382.139,94.659995 370.632,90.187995 c -11.132,-4.327 -23.85301,-7.285 -42.48001,-8.135 -18.665,-0.852 -24.625,-1.053 -72.152,-1.053 z m 0,31.531995 c 46.727,0 52.26201,0.178 70.71501,1.02001 17.062,0.779 26.328,3.63 32.495,6.025 8.169,3.17499 13.998,6.968 20.122,13.09099 6.124,6.124 9.916,11.954 13.091,20.122 2.396,6.167 5.247,15.433 6.025,32.495 0.842,18.453 1.021,23.988 1.021,70.715 0,46.727 -0.179,52.262 -1.021,70.715 -0.778,17.062 -3.629,26.328 -6.025,32.495 -3.175,8.169 -6.967,13.998 -13.091,20.122 -6.124,6.124 -11.953,9.916 -20.122,13.091 -6.167,2.396 -15.433,5.247 -32.495,6.025 -18.45,0.842 -23.985,1.021 -70.71501,1.021 -46.73,0 -52.264,-0.179 -70.715,-1.021 -17.062,-0.778 -26.328,-3.629 -32.495,-6.025 -8.169,-3.175 -13.998,-6.967 -20.122,-13.091 -6.124,-6.124 -9.917,-11.953 -13.091,-20.122 -2.396,-6.167 -5.247,-15.433 -6.026,-32.495 -0.842,-18.453 -1.02,-23.988 -1.02,-70.715 0,-46.727 0.178,-52.262 1.02,-70.715 0.779,-17.062 3.63,-26.328 6.026,-32.495 3.174,-8.168 6.967,-13.998 13.091,-20.122 6.124,-6.123 11.953,-9.916 20.122,-13.091 6.167,-2.395 15.433,-5.246 32.495,-6.025 18.453,-0.842 23.988,-1.02 70.715,-1.02 z m 0,53.603 c -49.631,0 -89.865,40.234 -89.865,89.865 0,49.631 40.234,89.865 89.865,89.865 49.631,0 89.86501,-40.234 89.86501,-89.865 0,-49.631 -40.234,-89.865 -89.86501,-89.865 z m 0,148.198 c -32.217,0 -58.333,-26.116 -58.333,-58.333 0,-32.217 26.116,-58.333 58.333,-58.333 32.217,0 58.333,26.116 58.333,58.333 0,32.217 -26.116,58.333 -58.333,58.333 z m 114.416,-151.748 c 0,11.598 -9.403,20.999 -21.00099,20.999 -11.597,0 -20.99901,-9.401 -20.99901,-20.999 0,-11.598 9.402,-21 20.99901,-21 11.598,0 21.00099,9.402 21.00099,21 z"
     id="path2"
     style="fill:#808080;fill-opacity:1" /></svg>
