<?xml version="1.0" encoding="UTF-8" standalone="no"?>
<svg
   width="32.393"
   height="32.393"
   viewBox="0 0 32.393 32.393"
   version="1.1"
   id="svg4"
   sodipodi:docname="light_facebook.svg"
   inkscape:version="1.1.2 (1:1.1+202202050950+0a00cf5339)"
   xmlns:inkscape="http://www.inkscape.org/namespaces/inkscape"
   xmlns:sodipodi="http://sodipodi.sourceforge.net/DTD/sodipodi-0.dtd"
   xmlns="http://www.w3.org/2000/svg"
   xmlns:svg="http://www.w3.org/2000/svg">
  <defs
     id="defs8" />
  <sodipodi:namedview
     id="namedview6"
     pagecolor="#ffffff"
     bordercolor="#666666"
     borderopacity="1.0"
     inkscape:pageshadow="2"
     inkscape:pageopacity="0.0"
     inkscape:pagecheckerboard="0"
     showgrid="false"
     inkscape:zoom="22.196152"
     inkscape:cx="16.196501"
     inkscape:cy="16.173974"
     inkscape:window-width="1920"
     inkscape:window-height="1009"
     inkscape:window-x="0"
     inkscape:window-y="34"
     inkscape:window-maximized="1"
     inkscape:current-layer="svg4" />
  <path
     d="M28.435,0a3.959,3.959,0,0,1,3.958,3.958V28.435a3.96,3.96,0,0,1-3.958,3.958H21.7V20.187h4.214l.8-5.227H21.7V11.568a2.614,2.614,0,0,1,2.947-2.824h2.28V4.294a27.811,27.811,0,0,0-4.048-.353c-4.131,0-6.83,2.5-6.83,7.036V14.96H11.457v5.227h4.591V32.393H3.958A3.96,3.96,0,0,1,0,28.435V3.958A3.959,3.959,0,0,1,3.958,0H28.435Z"
     fill="#fff"
     fill-rule="evenodd"
     id="path2"
     style="fill:#000000" />
</svg>
