<?xml version="1.0" encoding="UTF-8" standalone="no"?>
<svg
   enable-background="new 0 0 32 32"
   height="32px"
   id="Layer_1"
   version="1.0"
   viewBox="0 0 32 32"
   width="32px"
   xml:space="preserve"
   sodipodi:docname="linkedin.svg"
   inkscape:version="1.1.2 (1:1.1+202202050950+0a00cf5339)"
   xmlns:inkscape="http://www.inkscape.org/namespaces/inkscape"
   xmlns:sodipodi="http://sodipodi.sourceforge.net/DTD/sodipodi-0.dtd"
   xmlns="http://www.w3.org/2000/svg"
   xmlns:svg="http://www.w3.org/2000/svg"><defs
     id="defs29" /><sodipodi:namedview
     id="namedview27"
     pagecolor="#ffffff"
     bordercolor="#666666"
     borderopacity="1.0"
     inkscape:pageshadow="2"
     inkscape:pageopacity="0.0"
     inkscape:pagecheckerboard="0"
     showgrid="false"
     inkscape:zoom="22.46875"
     inkscape:cx="16"
     inkscape:cy="15.977747"
     inkscape:window-width="1920"
     inkscape:window-height="1009"
     inkscape:window-x="0"
     inkscape:window-y="34"
     inkscape:window-maximized="1"
     inkscape:current-layer="g12" /><g
     id="g12"><path
       d="m 32,29.955494 c 0,1.104 -0.896,2 -2,2 H 2 c -1.104,0 -2,-0.896 -2,-2 V 1.9554937 C 0,0.85149374 0.896,-0.04450626 2,-0.04450626 h 28 c 1.104,0 2,0.896 2,1.99999996 z"
       fill="#007BB5"
       id="path2"
       style="fill:#808080;fill-opacity:0.99899691" /><g
       id="g10"><rect
         fill="#FFFFFF"
         height="14"
         width="4"
         x="7"
         y="11"
         id="rect4"
         style="fill:#000000" /><path
         d="M20.499,11c-2.791,0-3.271,1.018-3.499,2v-2h-4v14h4v-8c0-1.297,0.703-2,2-2c1.266,0,2,0.688,2,2v8h4v-7    C25,14,24.479,11,20.499,11z"
         fill="#FFFFFF"
         id="path6"
         style="fill:#000000" /><circle
         cx="9"
         cy="8"
         fill="#FFFFFF"
         r="2"
         id="circle8"
         style="fill:#000000" /></g></g><g
     id="g14" /><g
     id="g16" /><g
     id="g18" /><g
     id="g20" /><g
     id="g22" /><g
     id="g24" /></svg>
