<?xml version="1.0" encoding="UTF-8" standalone="no"?>
<svg
   viewBox="0 0 224.84 313.95"
   version="1.1"
   id="svg20"
   sodipodi:docname="light_dark.svg"
   inkscape:version="1.1.2 (1:1.1+202202050950+0a00cf5339)"
   xmlns:inkscape="http://www.inkscape.org/namespaces/inkscape"
   xmlns:sodipodi="http://sodipodi.sourceforge.net/DTD/sodipodi-0.dtd"
   xmlns="http://www.w3.org/2000/svg"
   xmlns:svg="http://www.w3.org/2000/svg">
  <sodipodi:namedview
     id="namedview22"
     pagecolor="#ffffff"
     bordercolor="#666666"
     borderopacity="1.0"
     inkscape:pageshadow="2"
     inkscape:pageopacity="0.0"
     inkscape:pagecheckerboard="0"
     showgrid="false"
     inkscape:zoom="1.1450868"
     inkscape:cx="-63.313978"
     inkscape:cy="165.05299"
     inkscape:window-width="1920"
     inkscape:window-height="1009"
     inkscape:window-x="0"
     inkscape:window-y="34"
     inkscape:window-maximized="1"
     inkscape:current-layer="svg20" />
  <defs
     id="defs4">
    <style
       id="style2">.cls-1{fill:none;stroke:#fff;stroke-miterlimit:10;stroke-width:2px;}</style>
  </defs>
  <g
     id="Layer_2"
     data-name="Layer 2"
     style="fill:#000000;stroke:#ffffff">
    <g
       id="Camada_1"
       data-name="Camada 1"
       style="fill:#000000;stroke:#ffffff">
      <path
         class="cls-1"
         d="M105.38,290.49c-1,1.23-2,2.41-3.07,3.57-.55.6-1.11,1.18-1.66,1.76h0A81.91,81.91,0,0,1,84.13,309q-1.35.82-2.73,1.59a42.47,42.47,0,0,1-10.71-5.14c-.46-.29-.92-.6-1.35-.91-.17-.13-.36-.25-.53-.39L49.61,290.2h0L32.07,277.49l-9.36-6.78,0,0-2.2-1.59-3.21-2.34A43.37,43.37,0,0,1,4,248.85c.56-2,1.16-3.95,1.88-5.88A82.08,82.08,0,0,1,15,225l2.27,1.64,5.55,4,26.55,19.27h0s0,0,.05,0l0,0,4.68,3.4L71.75,266.1l.34.24Z"
         id="path6"
         style="fill:#000000;stroke:#ffffff" />
      <path
         class="cls-1"
         d="M124,238.05v.14a78.94,78.94,0,0,1-.5,9,81.83,81.83,0,0,1-7.94,27.45l-9.24-6.7L91.32,257h0L59.35,233.85,27.29,210.62a82.72,82.72,0,0,1,32.88-18.86l2.75,2,43.42,31.51Z"
         id="path8"
         style="fill:#000000;stroke:#ffffff" />
      <path
         class="cls-1"
         d="M182.71,149.45V1h41.13V221a82.58,82.58,0,0,1-32.61,65.82,78,78,0,0,1-8.52,5.7A83.46,83.46,0,0,1,165,300.16c-1.4.41-2.8.8-4.22,1.14a66,66,0,0,1-6.61,1.32,81.13,81.13,0,0,1-13.12,1.06c-1,0-2,0-2.92,0A84.3,84.3,0,0,0,165,281.35c.34-.41.65-.85,1-1.26a81.13,81.13,0,0,0,5.23-7.81,82.26,82.26,0,0,0,11.48-42.07V149.45Z"
         id="path10"
         style="fill:#000000;stroke:#ffffff" />
      <path
         class="cls-1"
         d="M165,40.42V248.06c-.22,1.25-.48,2.51-.8,3.74v0a80.13,80.13,0,0,1-4,12.45,82.9,82.9,0,0,1-19.66,28.44,82,82,0,0,1-12.78,9.89c-1,.65-2,1.25-3.09,1.86h0l-.63.33a75.66,75.66,0,0,1-8.59,4.18,81.34,81.34,0,0,1-9.09,3.18c-.91.24-1.86.51-2.8.72-1.18.05-2.36.08-3.57.08-2.74,0-5.47-.15-8.17-.41-1.76-.17-3.52-.39-5.26-.68a.39.39,0,0,1-.15,0,39.22,39.22,0,0,1-5-1.28q1.38-.76,2.73-1.59a81.91,81.91,0,0,0,16.49-13.15h0c.55-.58,1.11-1.16,1.66-1.76,1-1.16,2.08-2.34,3.07-3.57.34-.39.65-.8,1-1.21a82.74,82.74,0,0,0,9.24-14.64,81.83,81.83,0,0,0,7.94-27.45,78.94,78.94,0,0,0,.5-9V40.42Z"
         id="path12"
         style="fill:#000000;stroke:#ffffff" />
      <path
         class="cls-1"
         d="M106.34,91.87v40.21H83.74a82.34,82.34,0,0,0-51.09,17.68,80,80,0,0,0-8.23,7.38l0,0c-1.64,1.68-3.19,3.42-4.68,5.25a82.3,82.3,0,0,0-14.4,25.94c-.58,1.71-1.09,3.42-1.55,5.18l-.1.52-.21.66A82,82,0,0,0,1,214.79V174.6a78.76,78.76,0,0,1,.51-9,80.05,80.05,0,0,1,2.82-14.33c.14-.5.31-1,.46-1.52a81.78,81.78,0,0,1,8-17.68,82.65,82.65,0,0,1,71-40.21Z"
         id="path14"
         style="fill:#000000;stroke:#ffffff" />
      <path
         class="cls-1"
         d="M106.34,149.76v38.6H83.74A83.1,83.1,0,0,0,64,190.72c-1.3.31-2.58.68-3.86,1l-.94.29a83.1,83.1,0,0,0-41.51,29.18c-.41.54-.82,1.09-1.18,1.64-.54.68-1,1.38-1.5,2.1a82.08,82.08,0,0,0-9.12,18C5.2,244.9,4.6,246.85,4,248.85a43.37,43.37,0,0,1-3-16v-.39a80.4,80.4,0,0,1,.49-8.83A72.37,72.37,0,0,1,2.66,216a81.23,81.23,0,0,1,3.55-12.43c.8-2.14,1.69-4.26,2.65-6.31a76.1,76.1,0,0,1,4.92-8.9,82.87,82.87,0,0,1,38.14-32.23s0,0,0,0a81.68,81.68,0,0,1,28.34-6.3h.1c1.11,0,2.22-.07,3.33-.07Z"
         id="path16"
         style="fill:#000000;stroke:#ffffff" />
    </g>
  </g>
</svg>
