<?xml version="1.0" standalone="no"?>
<!DOCTYPE svg PUBLIC "-//W3C//DTD SVG 20010904//EN"
 "http://www.w3.org/TR/2001/REC-SVG-20010904/DTD/svg10.dtd">
<svg version="1.0" xmlns="http://www.w3.org/2000/svg"
 width="1256.000000pt" height="1256.000000pt" viewBox="0 0 1256.000000 1256.000000"
 preserveAspectRatio="xMidYMid meet">
<metadata>
Created by potrace 1.14, written by Peter Selinger 2001-2017
</metadata>
<g transform="translate(0.000000,1256.000000) scale(0.100000,-0.100000)"
fill="#000000" stroke="none">
<path d="M9059 12548 c-1 -2 -3 -2125 -5 -4718 -1 -2593 -5 -4728 -7 -4745 -3
-16 -8 -59 -12 -95 -4 -36 -8 -76 -10 -90 -5 -48 -21 -138 -25 -142 -1 -2 -3
-14 -4 -28 -4 -35 -46 -217 -61 -265 -6 -22 -18 -60 -25 -85 -8 -25 -16 -49
-19 -55 -3 -5 -6 -16 -7 -22 -2 -15 -49 -140 -73 -193 -8 -19 -15 -37 -16 -40
-11 -39 -141 -298 -180 -360 -14 -22 -25 -42 -25 -44 0 -5 -40 -68 -57 -91 -5
-6 -33 -47 -63 -93 -30 -45 -58 -82 -62 -82 -5 0 -8 -5 -8 -10 0 -6 -9 -21
-21 -33 -11 -12 -39 -47 -62 -77 -91 -118 -273 -302 -437 -440 -35 -30 -71
-61 -78 -67 -7 -7 -17 -13 -21 -13 -5 0 -21 -12 -38 -27 -16 -16 -37 -32 -46
-38 -9 -5 -60 -40 -114 -76 -54 -36 -118 -77 -143 -90 -25 -13 -47 -27 -50
-30 -3 -3 -54 -32 -115 -63 -60 -32 -112 -61 -115 -63 -6 -7 534 4 575 11 17
3 53 8 80 11 159 18 228 30 345 57 47 11 94 22 105 24 11 2 61 15 110 30 275
80 601 225 812 360 29 19 56 34 59 34 2 0 10 5 17 10 7 6 50 37 97 70 47 32
90 63 96 68 6 6 49 40 95 78 94 76 151 127 253 230 81 80 176 183 176 189 0 2
12 17 26 32 81 85 280 375 346 503 13 25 29 51 36 58 6 7 12 22 12 33 0 10 4
19 9 19 7 0 62 119 146 315 11 26 37 101 40 115 1 3 16 49 33 103 18 54 34
106 35 115 2 9 9 35 15 57 6 22 13 51 16 65 3 14 8 36 11 50 3 14 8 37 10 53
2 15 6 31 9 35 2 4 7 31 11 61 4 30 8 63 10 73 2 11 7 49 11 86 3 36 9 75 12
87 4 11 8 2073 9 4583 l3 4562 -860 0 c-473 0 -861 -1 -861 -2z"/>
<path d="M6720 10972 c-7 -3 -10 -1321 -10 -3928 0 -2408 -4 -3924 -9 -3924
-5 0 -16 6 -23 13 -27 25 -228 167 -238 167 -6 0 -10 4 -10 8 0 4 -51 44 -112
87 -62 44 -117 83 -123 87 -47 36 -119 89 -160 117 -28 19 -52 37 -55 40 -3 4
-27 22 -55 41 -27 19 -54 38 -60 42 -34 28 -147 108 -150 108 -3 0 -13 7 -23
16 -9 9 -116 88 -237 175 -121 87 -227 165 -236 172 -8 6 -23 17 -31 22 -9 6
-62 44 -118 85 -56 41 -110 80 -118 85 -9 6 -22 15 -28 20 -7 6 -39 29 -71 52
-32 23 -81 59 -110 80 -28 21 -61 45 -73 53 -36 25 -124 89 -136 98 -6 5 -35
27 -65 48 -30 21 -60 44 -67 51 -6 6 -21 15 -32 18 -11 3 -20 10 -20 15 0 5
-14 17 -32 26 -38 20 -30 26 57 45 33 7 65 14 70 15 6 1 26 5 45 8 19 4 42 9
50 11 8 2 29 6 45 9 102 15 172 25 185 25 8 0 31 3 50 5 19 3 91 8 159 10 68
3 125 7 128 10 2 2 17 0 33 -4 16 -4 31 -6 34 -3 7 7 115 7 122 0 3 -3 16 -2
30 2 13 3 56 4 95 1 39 -3 72 -4 74 -1 6 5 115 4 121 -2 3 -3 16 -2 30 2 13 3
56 4 95 1 39 -3 72 -4 74 -1 4 3 107 4 123 0 4 -1 12 0 17 1 6 1 36 2 68 1 62
-1 60 -3 58 64 -1 51 -1 46 1 141 1 44 -2 85 -5 91 -4 6 -4 13 0 17 10 9 9
556 -1 556 -5 0 -4 6 1 13 5 6 7 131 6 277 -2 146 -3 276 -2 290 1 33 1 141 0
160 -1 16 -61 23 -61 8 0 -5 -8 -5 -17 0 -35 16 -1163 4 -1223 -13 -8 -3 -42
-7 -75 -10 -33 -3 -71 -7 -85 -11 -14 -3 -38 -7 -55 -10 -69 -11 -145 -27
-220 -46 -44 -11 -87 -22 -95 -23 -8 -2 -15 -4 -15 -5 0 -1 -7 -3 -15 -5 -33
-7 -218 -69 -270 -90 -86 -35 -95 -38 -100 -40 -49 -17 -263 -122 -363 -179
-86 -48 -266 -163 -277 -176 -3 -3 -31 -23 -62 -44 -32 -22 -58 -42 -58 -46 0
-3 -12 -13 -27 -22 -28 -17 -42 -29 -136 -111 -125 -109 -417 -417 -417 -440
0 -3 -12 -19 -26 -34 -14 -15 -38 -46 -53 -68 -15 -22 -43 -62 -62 -90 -44
-63 -137 -215 -169 -278 -14 -26 -28 -47 -32 -47 -5 0 -8 -5 -8 -10 0 -6 -18
-50 -41 -98 -23 -48 -47 -100 -54 -117 -22 -47 -87 -216 -89 -229 -1 -6 -5
-16 -8 -22 -4 -6 -9 -21 -12 -35 -3 -13 -17 -60 -31 -104 -14 -44 -25 -81 -25
-82 0 -2 0 -4 -1 -5 -1 -6 -8 -34 -13 -57 -3 -13 -8 -26 -11 -29 -8 -9 4 209
19 338 12 94 18 135 22 142 3 5 7 27 9 51 2 23 6 51 9 62 78 321 134 494 223
685 14 30 32 72 40 93 8 20 19 37 24 37 5 0 9 6 9 14 0 8 16 42 35 76 19 34
35 64 35 66 0 3 8 17 19 32 10 15 38 59 62 97 59 95 167 245 219 305 12 14 34
41 48 60 50 65 392 400 408 400 3 0 11 6 18 13 33 31 150 120 232 175 69 45
128 83 180 112 32 19 61 37 62 42 2 4 12 8 22 8 10 0 21 4 24 9 6 9 121 67
231 116 84 37 259 105 285 110 8 2 27 8 43 14 15 6 38 13 50 16 12 3 56 14 97
26 82 22 100 27 145 35 17 2 46 9 65 14 19 5 54 12 77 15 23 3 57 8 75 11 76
10 155 19 186 19 17 0 32 3 32 6 0 4 269 7 597 8 329 1 600 6 603 11 4 6 4
333 0 455 0 6 1 61 2 123 2 61 -1 112 -6 112 -5 0 -5 5 1 13 7 9 8 173 3 387
0 8 1 66 2 128 2 61 -1 112 -6 112 -5 0 -5 5 0 13 11 14 11 308 1 324 -7 11
-1169 11 -1232 0 -26 -5 -73 -10 -180 -23 -16 -1 -41 -5 -55 -8 -14 -3 -43 -7
-65 -11 -22 -3 -56 -10 -75 -15 -19 -5 -52 -11 -74 -14 -21 -4 -42 -9 -47 -12
-5 -3 -17 -7 -28 -9 -44 -8 -190 -50 -236 -67 -27 -11 -57 -21 -65 -23 -8 -1
-62 -22 -118 -44 -531 -212 -999 -555 -1358 -996 -99 -121 -224 -298 -224
-316 0 -5 -4 -9 -10 -9 -5 0 -10 -4 -10 -8 0 -5 -25 -50 -55 -100 -51 -84
-194 -369 -199 -395 -1 -7 -10 -30 -20 -52 -19 -42 -109 -309 -122 -360 -12
-51 -14 -59 -16 -77 -1 -10 -6 -18 -11 -18 -4 0 -6 -4 -3 -8 3 -4 0 -28 -5
-53 -6 -24 -12 -53 -15 -64 -2 -11 -6 -31 -9 -45 -10 -52 -17 -101 -31 -221
-3 -30 -8 -70 -11 -89 -3 -19 -8 -457 -10 -972 l-4 -937 33 2 c32 2 33 1 31
-33 -1 -19 -4 -46 -7 -60 -10 -51 -25 -154 -31 -211 -2 -24 -8 -71 -12 -104
-10 -82 -10 -455 0 -535 10 -71 11 -79 21 -130 4 -19 8 -43 10 -52 1 -10 5
-21 9 -24 4 -4 7 -15 7 -25 0 -47 120 -359 150 -389 3 -3 16 -25 29 -50 22
-42 120 -184 166 -240 34 -41 208 -213 243 -240 18 -14 43 -33 54 -43 12 -9
24 -17 27 -17 3 0 17 -10 31 -23 14 -12 45 -35 70 -52 25 -16 47 -33 48 -37 2
-5 10 -8 17 -8 7 0 15 -4 17 -8 1 -4 89 -69 193 -145 105 -76 197 -143 205
-150 8 -7 53 -39 100 -71 47 -33 90 -65 97 -70 32 -28 43 -36 48 -36 8 0 89
-63 93 -72 2 -5 10 -8 17 -8 7 0 15 -3 17 -7 5 -13 76 -63 87 -63 6 0 11 -4
11 -10 0 -5 14 -17 31 -25 16 -9 39 -24 49 -33 22 -20 31 -27 95 -72 28 -19
55 -38 60 -42 6 -5 46 -34 90 -66 264 -191 341 -247 350 -255 6 -4 44 -32 85
-62 41 -29 80 -59 87 -64 7 -6 15 -11 18 -11 3 0 18 -11 33 -25 15 -14 32 -25
39 -25 6 0 13 -3 15 -8 5 -13 91 -72 105 -72 7 0 13 -4 13 -9 0 -11 193 -110
284 -146 60 -24 112 -41 191 -61 11 -3 25 -6 30 -8 58 -17 130 -28 250 -41 33
-4 76 -8 95 -11 19 -2 125 -6 236 -9 160 -3 213 -1 260 12 32 8 66 16 74 18
40 9 247 82 340 120 109 44 261 117 365 175 33 18 69 38 80 44 11 6 22 14 25
17 3 4 30 21 60 38 66 38 172 112 258 181 34 27 65 50 67 50 3 0 13 8 23 18
10 9 40 37 67 60 164 144 367 363 470 506 11 16 25 33 31 40 40 43 202 307
275 448 7 13 16 30 21 38 4 8 13 26 19 40 5 14 19 42 29 63 11 20 17 37 14 37
-4 0 0 10 8 22 8 13 25 50 37 83 12 33 27 68 33 79 5 10 11 26 13 35 2 9 17
59 34 111 16 52 35 115 41 140 15 64 18 75 20 75 2 0 1 -1 23 110 14 72 16
493 14 4245 l-2 4165 -848 0 c-466 0 -852 -1 -857 -3z m-3818 -6905 c7 -7 67
-51 133 -97 66 -47 127 -90 135 -97 8 -6 44 -33 80 -59 36 -26 82 -60 102 -76
20 -15 41 -28 47 -28 5 0 11 -3 13 -8 3 -7 102 -81 257 -191 41 -30 79 -57 85
-62 10 -8 227 -165 276 -199 12 -8 31 -23 43 -32 12 -9 114 -84 227 -165 113
-81 207 -151 208 -155 2 -4 10 -8 18 -8 8 0 17 -7 20 -15 4 -8 12 -15 20 -15
7 0 21 -8 31 -18 10 -10 43 -36 73 -57 30 -21 78 -55 105 -75 28 -20 133 -97
235 -171 102 -73 187 -137 188 -141 2 -4 8 -8 12 -8 8 0 100 -65 165 -116 11
-8 32 -23 48 -32 15 -9 27 -20 27 -24 0 -4 6 -8 14 -8 8 0 16 -3 18 -8 2 -4
37 -32 78 -62 41 -30 77 -58 78 -62 2 -5 8 -8 12 -8 8 0 132 -88 214 -152 16
-13 34 -25 41 -28 6 -3 18 -11 26 -18 11 -10 142 -106 284 -208 11 -8 48 -35
82 -60 l63 -46 -43 -79 c-23 -44 -46 -89 -52 -100 -5 -10 -13 -19 -17 -19 -5
0 -8 -6 -8 -12 0 -7 -18 -39 -40 -71 -22 -31 -40 -62 -40 -67 0 -6 -7 -13 -15
-16 -8 -4 -15 -11 -15 -16 0 -11 -77 -118 -111 -155 -26 -29 -31 -28 -66 0
-15 13 -50 39 -78 57 -27 19 -56 40 -63 47 -8 7 -23 18 -34 24 -11 6 -27 17
-36 25 -17 14 -136 101 -277 201 -44 32 -89 65 -99 75 -11 10 -24 18 -29 18
-4 0 -14 6 -22 13 -26 24 -55 47 -61 47 -4 0 -15 9 -25 21 -9 11 -19 19 -22
17 -2 -2 -17 7 -33 19 -79 61 -206 153 -212 153 -3 0 -12 7 -21 16 -13 12
-131 99 -360 262 -12 9 -43 32 -66 50 -24 17 -49 32 -54 32 -6 0 -11 4 -11 8
0 5 -26 26 -57 48 -32 21 -60 41 -63 44 -3 3 -21 17 -40 30 -19 13 -41 30 -48
37 -7 7 -17 13 -22 13 -5 0 -15 6 -22 13 -7 7 -53 42 -103 77 -49 35 -91 68
-93 72 -2 4 -10 8 -18 8 -8 0 -14 5 -14 10 0 6 -6 10 -13 10 -7 0 -19 9 -27
20 -8 11 -20 20 -27 20 -7 0 -13 5 -13 11 0 5 -4 7 -10 4 -5 -3 -10 -2 -10 3
0 5 -19 22 -42 38 -36 25 -126 88 -227 162 -13 9 -30 23 -37 30 -7 6 -15 12
-18 12 -4 0 -113 77 -151 108 -5 4 -26 19 -45 32 -19 13 -39 28 -45 33 -5 4
-59 43 -120 87 -60 44 -115 83 -120 88 -6 5 -24 17 -40 28 -17 10 -41 29 -55
41 -14 13 -30 23 -37 23 -7 0 -18 9 -25 20 -7 11 -17 20 -21 20 -5 0 -22 10
-37 23 -15 12 -60 44 -99 72 -39 27 -71 53 -71 58 0 4 -4 6 -9 3 -5 -4 -11 -3
-13 1 -1 5 -25 24 -53 43 -27 19 -54 38 -60 43 -5 4 -29 21 -52 38 -47 34 -50
40 -28 63 8 8 15 19 15 25 0 6 5 11 10 11 6 0 10 6 10 14 0 8 4 16 8 18 4 2
23 24 42 49 34 44 102 126 148 178 36 40 184 191 187 191 2 0 10 -6 17 -13z"/>
</g>
</svg>
